<svg width="30" height="30" viewBox="0 0 30 30" fill="none" xmlns="http://www.w3.org/2000/svg">
<circle cx="15" cy="15" r="13.7759" stroke="#2C3E50"/>
<path d="M11.3029 5.9302C11.7868 5.44365 12.3621 5.05774 12.9956 4.79469C13.6291 4.53163 14.3083 4.39663 14.9942 4.39746C15.68 4.3983 16.3589 4.53494 16.9918 4.79952C17.6246 5.06411 18.199 5.45142 18.6817 5.93914C19.1542 6.44796 19.5142 7.05081 19.7383 7.70834C19.9624 8.36588 20.0454 9.06333 19.982 9.75517C19.9384 11.0888 19.4068 12.3599 18.4883 13.3268C17.5697 14.2937 16.3283 14.8889 15 14.9993C13.6703 14.8906 12.4271 14.2956 11.5075 13.3279C10.5879 12.3603 10.0563 11.0876 10.0141 9.75261C9.94947 9.06064 10.0308 8.3628 10.2529 7.70432C10.4749 7.04584 10.8326 6.44141 11.3029 5.9302ZM15 25.6025C13.272 25.6037 11.5614 25.2575 9.96958 24.5845C8.37776 23.9115 6.93715 22.9253 5.73317 21.6844C6.42265 20.7001 7.30111 19.8632 8.31727 19.2225C10.3327 18.002 12.6432 17.3568 14.9987 17.3568C17.3541 17.3568 19.6647 18.002 21.6801 19.2225C22.6972 19.8628 23.5766 20.6998 24.2668 21.6844C23.0629 22.9254 21.6223 23.9117 20.0304 24.5847C18.4386 25.2578 16.7279 25.6039 15 25.6025Z" fill="#2C3E50"/>
</svg>
