<svg width="24" height="24" viewBox="0 0 24 24" fill="none" xmlns="http://www.w3.org/2000/svg">
<path d="M5 12H3L12 3L21 12H19" fill="#2C3E50"/>
<path d="M5 12H3L12 3L21 12H19" stroke="#2C3E50" stroke-width="1.5" stroke-linecap="round" stroke-linejoin="round"/>
<path fill-rule="evenodd" clip-rule="evenodd" d="M5 19V12H19V19C19 19.5304 18.7893 20.0391 18.4142 20.4142C18.0391 20.7893 17.5304 21 17 21H15V15C15 14.4696 14.7893 13.9609 14.4142 13.5858C14.0391 13.2107 13.5304 13 13 13H11C10.4696 13 9.96086 13.2107 9.58579 13.5858C9.21071 13.9609 9 14.4696 9 15V21H7C6.46957 21 5.96086 20.7893 5.58579 20.4142C5.21071 20.0391 5 19.5304 5 19Z" fill="#2C3E50"/>
<path d="M5 12V11.25C4.58579 11.25 4.25 11.5858 4.25 12H5ZM19 12H19.75C19.75 11.5858 19.4142 11.25 19 11.25V12ZM18.4142 20.4142L18.9445 20.9445V20.9445L18.4142 20.4142ZM15 21H14.25C14.25 21.4142 14.5858 21.75 15 21.75V21ZM9.58579 13.5858L10.1161 14.1161L10.1161 14.1161L9.58579 13.5858ZM9 21V21.75C9.41421 21.75 9.75 21.4142 9.75 21H9ZM4.25 12V19H5.75V12H4.25ZM19 11.25H5V12.75H19V11.25ZM19.75 19V12H18.25V19H19.75ZM18.9445 20.9445C19.4603 20.4288 19.75 19.7293 19.75 19H18.25C18.25 19.3315 18.1183 19.6495 17.8839 19.8839L18.9445 20.9445ZM17 21.75C17.7293 21.75 18.4288 21.4603 18.9445 20.9445L17.8839 19.8839C17.6495 20.1183 17.3315 20.25 17 20.25V21.75ZM15 21.75H17V20.25H15V21.75ZM14.25 15V21H15.75V15H14.25ZM13.8839 14.1161C14.1183 14.3505 14.25 14.6685 14.25 15H15.75C15.75 14.2707 15.4603 13.5712 14.9445 13.0555L13.8839 14.1161ZM13 13.75C13.3315 13.75 13.6495 13.8817 13.8839 14.1161L14.9445 13.0555C14.4288 12.5397 13.7293 12.25 13 12.25V13.75ZM11 13.75H13V12.25H11V13.75ZM10.1161 14.1161C10.3505 13.8817 10.6685 13.75 11 13.75V12.25C10.2707 12.25 9.57118 12.5397 9.05546 13.0555L10.1161 14.1161ZM9.75 15C9.75 14.6685 9.8817 14.3505 10.1161 14.1161L9.05546 13.0555C8.53973 13.5712 8.25 14.2707 8.25 15H9.75ZM9.75 21V15H8.25V21H9.75ZM7 21.75H9V20.25H7V21.75ZM5.05546 20.9445C5.57118 21.4603 6.27065 21.75 7 21.75V20.25C6.66848 20.25 6.35054 20.1183 6.11612 19.8839L5.05546 20.9445ZM4.25 19C4.25 19.7293 4.53973 20.4288 5.05546 20.9445L6.11612 19.8839C5.8817 19.6495 5.75 19.3315 5.75 19H4.25Z" fill="#2C3E50"/>
</svg>
