<svg width="24" height="24" viewBox="0 0 24 24" fill="none" xmlns="http://www.w3.org/2000/svg">
<path d="M7.5 4.20999V4.22055" stroke="#2C3E50" stroke-width="1.5" stroke-linecap="round" stroke-linejoin="round"/>
<path d="M4.21022 7.5V7.51056" stroke="#2C3E50" stroke-width="1.5" stroke-linecap="round" stroke-linejoin="round"/>
<path d="M3 12V12.0106" stroke="#2C3E50" stroke-width="1.5" stroke-linecap="round" stroke-linejoin="round"/>
<path d="M4.21022 16.5V16.5106" stroke="#2C3E50" stroke-width="1.5" stroke-linecap="round" stroke-linejoin="round"/>
<path d="M7.5 19.79V19.8006" stroke="#2C3E50" stroke-width="1.5" stroke-linecap="round" stroke-linejoin="round"/>
<path d="M12 21V21.0106" stroke="#2C3E50" stroke-width="1.5" stroke-linecap="round" stroke-linejoin="round"/>
<path d="M16.5 19.79V19.8006" stroke="#2C3E50" stroke-width="1.5" stroke-linecap="round" stroke-linejoin="round"/>
<path d="M19.7898 16.5V16.5106" stroke="#2C3E50" stroke-width="1.5" stroke-linecap="round" stroke-linejoin="round"/>
<path d="M21 12V12.0106" stroke="#2C3E50" stroke-width="1.5" stroke-linecap="round" stroke-linejoin="round"/>
<path d="M19.7898 7.5V7.51056" stroke="#2C3E50" stroke-width="1.5" stroke-linecap="round" stroke-linejoin="round"/>
<path d="M16.5 4.20999V4.22055" stroke="#2C3E50" stroke-width="1.5" stroke-linecap="round" stroke-linejoin="round"/>
<path d="M12 3V3.01056" stroke="#2C3E50" stroke-width="1.5" stroke-linecap="round" stroke-linejoin="round"/>
<mask id="path-13-inside-1_1_264" fill="white">
<path fill-rule="evenodd" clip-rule="evenodd" d="M18.2727 12.2568C18.2641 10.1554 16.558 8.45454 14.4545 8.45454C12.3458 8.45454 10.6364 10.164 10.6364 12.2727C10.6364 14.3814 12.3458 16.0909 14.4545 16.0909C16.558 16.0909 18.2643 14.3899 18.2727 12.2884C18.2643 15.5949 15.5812 18.2727 12.2727 18.2727C8.95901 18.2727 6.27272 15.5864 6.27272 12.2727C6.27272 8.95901 8.95901 6.27272 12.2727 6.27272C15.5811 6.27272 18.2641 8.95043 18.2727 12.2568Z"/>
</mask>
<path fill-rule="evenodd" clip-rule="evenodd" d="M18.2727 12.2568C18.2641 10.1554 16.558 8.45454 14.4545 8.45454C12.3458 8.45454 10.6364 10.164 10.6364 12.2727C10.6364 14.3814 12.3458 16.0909 14.4545 16.0909C16.558 16.0909 18.2643 14.3899 18.2727 12.2884C18.2643 15.5949 15.5812 18.2727 12.2727 18.2727C8.95901 18.2727 6.27272 15.5864 6.27272 12.2727C6.27272 8.95901 8.95901 6.27272 12.2727 6.27272C15.5811 6.27272 18.2641 8.95043 18.2727 12.2568Z" fill="#2C3E50"/>
<path d="M18.2727 12.2568L17.7272 12.2591L18.8182 12.2554L18.2727 12.2568ZM18.2727 12.2884L18.8182 12.2898L17.7273 12.2862L18.2727 12.2884ZM14.4545 8.99999C16.2575 8.99999 17.7199 10.4579 17.7272 12.2591L18.8181 12.2546C18.8084 9.85294 16.8585 7.90908 14.4545 7.90908V8.99999ZM11.1818 12.2727C11.1818 10.4652 12.6471 8.99999 14.4545 8.99999V7.90908C12.0446 7.90908 10.0909 9.86275 10.0909 12.2727H11.1818ZM14.4545 15.5454C12.6471 15.5454 11.1818 14.0802 11.1818 12.2727H10.0909C10.0909 14.6827 12.0446 16.6364 14.4545 16.6364V15.5454ZM17.7273 12.2862C17.72 14.0874 16.2575 15.5454 14.4545 15.5454V16.6364C16.8586 16.6364 18.8085 14.6924 18.8182 12.2906L17.7273 12.2862ZM17.7272 12.287C17.7196 15.2929 15.2804 17.7273 12.2727 17.7273V18.8182C15.882 18.8182 18.8089 15.8969 18.8182 12.2898L17.7272 12.287ZM12.2727 17.7273C9.26026 17.7273 6.81817 15.2852 6.81817 12.2727H5.72727C5.72727 15.8877 8.65777 18.8182 12.2727 18.8182V17.7273ZM6.81817 12.2727C6.81817 9.26026 9.26026 6.81817 12.2727 6.81817V5.72727C8.65777 5.72727 5.72727 8.65777 5.72727 12.2727H6.81817ZM12.2727 6.81817C15.2804 6.81817 17.7195 9.25246 17.7272 12.2583L18.8182 12.2554C18.8088 8.6484 15.8819 5.72727 12.2727 5.72727V6.81817Z" fill="#2C3E50" mask="url(#path-13-inside-1_1_264)"/>
</svg>
