<svg width="20" height="20" viewBox="0 0 20 20" fill="none" xmlns="http://www.w3.org/2000/svg">
<path d="M18.1629 1.49917C18.5666 1.90913 18.7934 2.46508 18.7934 3.04477C18.7934 3.62445 18.5666 4.1804 18.1629 4.59036C18.624 5.89782 18.726 7.30803 18.4578 8.66981C18.1896 10.0316 17.5614 11.2936 16.6405 12.3205L14.3558 14.6378C13.9397 15.1766 13.654 15.807 13.5218 16.4784C13.3896 17.1497 13.4145 17.8431 13.5946 18.5029L1.41409 6.13815C2.06381 6.32075 2.74668 6.34595 3.40774 6.21172C4.0688 6.0775 4.6896 5.7876 5.22016 5.36535L7.5038 3.04477C8.51533 2.10988 9.75842 1.47212 11.0998 1.19984C12.4412 0.927556 13.8302 1.03103 15.1181 1.49917C15.5219 1.08933 16.0695 0.8591 16.6405 0.8591C17.2115 0.8591 17.7591 1.08933 18.1629 1.49917V1.49917Z" stroke="#2C3E50" stroke-width="1.5" stroke-linecap="round" stroke-linejoin="round"/>
<path d="M5.22017 10.001L4.45896 10.7738C3.85316 11.3889 3.51282 12.223 3.51282 13.0928C3.51282 13.9625 3.85316 14.7967 4.45896 15.4117C5.06476 16.0267 5.8864 16.3723 6.74313 16.3723C7.59986 16.3723 8.42151 16.0267 9.02731 15.4117L9.78852 14.6389" fill="#2C3E50"/>
<path d="M5.22017 10.001L4.45896 10.7738C3.85316 11.3889 3.51282 12.223 3.51282 13.0928C3.51282 13.9625 3.85316 14.7967 4.45896 15.4117C5.06476 16.0267 5.8864 16.3723 6.74313 16.3723C7.59987 16.3723 8.42151 16.0267 9.02731 15.4117L9.78852 14.6389" stroke="#2C3E50" stroke-width="1.5" stroke-linecap="round" stroke-linejoin="round"/>
</svg>
